<svg width="226" height="71" viewBox="0 0 226 71" version="1.1" xmlns="http://www.w3.org/2000/svg" xmlns:xlink="http://www.w3.org/1999/xlink">
<title>Canvas</title>
<desc>Created using Figma</desc>
<g id="Canvas" transform="translate(113 348)">
<g id="Canvas">
<g id="path826">
<g id="Vector">
<use xlink:href="#path0_fill" transform="matrix(0.264583 7.06937e-25 -7.06937e-25 0.264583 -113 -348)" fill="#333333"/>
</g>
</g>
</g>
</g>
<defs>
<path id="path0_fill" d="M 163.646 0.0360913C 156.003 -0.278923 148.514 1.45958 142.821 5.59064L 135.607 10.8237L 128.317 5.4576C 113.704 -5.30301 85.7019 0.854018 76.5691 16.8439C 73.256 22.6444 70.2665 24.5142 64.2584 24.5271C 44.8638 24.5676 24.0732 47.3909 27.2482 65.1607C 28.4725 72.0134 27.5836 73.5309 20.3247 76.9573C 2.98734 85.1404 -5.23759 109.367 3.56154 126.316C 7.55047 133.999 7.55047 135.219 3.56154 142.902C -5.23759 159.851 2.98763 184.078 20.3247 192.261C 27.5831 195.688 28.4726 197.205 27.2482 204.058C 24.0521 221.945 44.8967 244.68 64.4921 244.68C 70.6551 244.68 73.4046 246.285 75.6675 251.233C 77.3174 254.84 82.5334 260.144 87.2659 263.019C 98.7093 269.968 120.576 270.155 128.985 263.373C 134.903 258.599 135.244 258.598 143.087 263.362C 148.312 266.535 156.124 268.246 165.393 268.252C 178.87 268.26 180.277 267.619 190.995 256.477C 199.076 248.076 204.442 244.676 209.628 244.669C 226.893 244.646 244.458 225.547 244.579 206.674C 244.638 197.471 245.672 195.712 253.072 192.261C 257.708 190.1 263.828 184.3 266.674 179.367C 273.215 168.034 273.647 147.278 267.475 140.486C 263.374 135.971 263.434 134.962 268.443 124.875C 272.298 117.119 273.315 111.546 272.083 105.007C 269.582 91.7295 261.167 79.4403 252.293 76.1035C 245.468 73.5376 244.53 71.909 244.523 62.6218C 244.505 43.1547 226.924 24.5708 208.504 24.5493C 202.052 24.5418 199.066 22.7966 195.648 17.0324C 189.562 6.77199 176.383 0.561114 163.646 0.0360913ZM 107.769 11.4335C 119.753 11.4335 122.638 14.0065 114.937 17.8306C 111.207 19.6832 109.027 23.1525 109.027 27.2434C 109.027 33.2549 109.876 33.6678 120.871 33.1306C 127.382 32.8124 134.483 32.4939 136.654 32.421C 138.824 32.3463 144.81 33.0062 149.955 33.8845C 161.644 35.8797 167.589 30.5251 163.056 22.088C 161.457 19.1131 158.349 16.6776 156.144 16.6776C 153.94 16.6776 152.868 15.5024 153.762 14.0611C 154.656 12.6197 159.963 11.4335 165.561 11.4335C 173.422 11.4335 176.977 13.007 181.189 18.3406C 184.188 22.1384 186.643 26.1882 186.643 27.3321C 186.643 31.9911 177.947 37.5034 164.447 41.4125C 143.968 47.3424 139.292 54.2741 139.292 78.6203C 139.292 93.3169 138.415 97.9223 135.641 97.9223C 132.781 97.9223 132.29 94.3583 133.337 81.3699C 135.226 57.9177 130.699 50.1469 111.042 43.0756C 90.7334 35.7701 88.1243 34.0921 87.1769 27.7867C 85.9684 19.739 96.4238 11.4335 107.769 11.4335ZM 61.5647 37.6429C 71.4205 37.6429 74.8094 43.9615 71.2708 55.7258C 63.5018 81.554 69.3998 95.8922 91.9627 106.05C 99.1798 109.298 105.087 112.855 105.087 113.954C 105.087 119.548 98.7841 118.298 89.4917 110.861C 82.5811 105.329 75.2385 102.126 67.5197 101.26C 56.695 100.044 55.0251 100.747 42.2637 112.036C 26.0059 126.419 17.7427 127.676 13.0785 116.46C 9.91816 108.861 11.1883 99.6631 16.2731 93.3327C 20.4462 88.1374 23.0988 89.4873 23.9979 97.2465C 25.7602 112.455 44.5678 104.7 44.5678 88.765C 44.5678 82.4309 46.1312 79.7079 51.0682 77.4673C 59.7848 73.5114 62.8125 61.6364 56.3109 56.901C 52.2497 53.9433 50.5395 54.0253 45.4027 57.3777C 38.3217 61.999 37.5858 59.0451 43.1542 48.3197C 47.2836 40.3655 51.9719 37.6429 61.5647 37.6429ZM 211.097 37.6429C 220.056 37.6429 228.817 44.4343 232.212 54.0184C 234.103 59.3521 233.869 59.4291 225.056 56.0917C 220.017 54.1835 217.411 54.5475 214.359 57.5884C 208.49 63.434 209.27 66.1733 219.534 75.8153C 224.599 80.5731 228.739 86.9766 228.739 90.0509C 228.739 98.4105 233.564 105.783 239.036 105.783C 245.269 105.783 250.822 99.1302 248.854 94.0199C 246.757 88.5792 250.686 89.0403 255.966 94.8518C 261.027 100.421 261.752 116.406 257.157 120.983C 251.415 126.703 243.376 124.059 230.465 112.225C 213.936 97.0738 203.682 96.4856 184.595 109.564C 172.577 117.798 168.232 118.816 168.232 113.4C 168.232 112.305 174.729 108.45 182.669 104.829C 202.866 95.6205 207.344 86.1375 202.638 62.5553C 198.42 41.4217 199.696 37.6429 211.097 37.6429ZM 188.079 47.7099L 191.306 59.7504C 197.427 82.5425 194.124 91.392 176.057 100.572C 164.016 106.691 163.75 106.71 154.574 101.748C 149.136 98.8067 147.095 95.248 145.759 86.37C 142.704 66.08 153.878 52.4949 176.18 49.373L 188.079 47.7099ZM 90.2154 48.5193C 93.193 48.4909 97.4677 49.4459 103.985 51.0804C 120.456 55.2115 126.135 63.2503 126.135 82.4785C 126.135 96.774 125.617 98.0459 118.366 101.781C 109.503 106.346 108.775 106.391 99.8217 102.845C 80.8444 95.3304 75.0165 80.8819 81.8229 58.2536C 83.9038 51.3359 85.2528 48.5665 90.2154 48.5193ZM 313.001 52.4662C 308.258 52.4662 304.441 56.2685 304.441 60.9921L 304.441 207.362C 304.441 212.085 308.258 215.888 313.001 215.888C 317.743 215.888 321.56 212.085 321.56 207.362L 321.56 60.9921C 321.56 56.2685 317.743 52.4662 313.001 52.4662ZM 102.348 61.236C 96.43 61.236 86.6648 69.9883 86.6648 75.2942C 86.6648 80.4455 96.9611 92.7296 103.473 95.3505C 106.529 96.5803 109.235 97.6663 109.494 97.7566C 109.753 97.8478 111.829 96.0631 114.103 93.7982C 123.551 84.3874 115.192 61.236 102.348 61.236ZM 171.037 61.236C 159.524 61.236 150.669 76.1981 154.207 89.674C 157.614 102.651 184.016 91.0931 184.016 76.6246C 184.016 69.6263 176.937 61.236 171.037 61.236ZM 102.047 71.7131C 106.215 71.7131 110.993 79.3548 109.405 83.4764C 107.469 88.5038 103.996 88.5266 99.8437 83.5428C 96.4564 79.4776 97.9047 71.7131 102.047 71.7131ZM 169.067 72.4227C 173.633 73.937 174.572 82.5204 170.459 85.1172C 165.801 88.0568 163.626 87.9981 161.687 84.8734C 159.414 81.2097 165.352 71.1906 169.067 72.4227ZM 351.113 80.3277L 351.113 124.498L 362.689 124.498L 362.689 112.28L 371.048 112.28L 371.293 112.28L 377.749 124.498L 390.85 124.498L 381.611 110.074C 386.736 107.427 389.514 102.507 389.514 95.8274C 389.514 85.9958 382.817 80.3277 371.048 80.3277L 351.113 80.3277ZM 429.085 80.3277L 410.04 124.498L 421.927 124.498L 425.033 116.693L 444.2 116.693L 447.239 124.498L 459.573 124.498L 440.973 80.3277L 429.085 80.3277ZM 473.397 80.3277L 490.605 124.498L 502.627 124.498L 519.968 80.3277L 508.07 80.3277L 496.928 112.28L 485.864 80.3277L 473.397 80.3277ZM 541.863 80.3277L 541.863 124.498L 553.439 124.498L 553.439 80.3277L 541.863 80.3277ZM 575.834 80.3277L 575.834 89.8406L 589.002 89.8406L 589.002 124.498L 600.578 124.498L 600.578 89.8406L 613.869 89.8406L 613.869 80.3277L 575.834 80.3277ZM 636.198 80.3277L 636.198 124.498L 671.817 124.498L 671.817 115.307L 647.774 115.307L 647.774 106.981L 668.9 106.914L 668.9 97.7785L 647.774 97.7785L 647.774 89.5303L 671.182 89.5303L 671.182 80.3277L 636.198 80.3277ZM 696.071 80.3277L 696.071 89.8406L 711.264 89.8406L 711.264 109.885C 711.264 113.226 709.492 114.985 706.645 114.985C 704.051 114.985 700.566 113.348 697.34 110.007L 692.03 117.89C 695.953 122.428 701.078 125.008 707.469 125.008C 716.96 125.008 722.907 119.583 722.907 110.129L 722.907 80.3277L 696.071 80.3277ZM 761.632 80.3277L 742.587 124.498L 754.485 124.498L 757.591 116.693L 776.758 116.693L 779.797 124.498L 792.131 124.498L 773.531 80.3277L 761.632 80.3277ZM 362.689 89.5303L 371.104 89.5303C 375.786 89.5303 378.506 91.8557 378.506 96.2043C 378.506 100.679 375.786 103.078 371.104 103.078L 362.689 103.078L 362.689 89.5303ZM 434.706 92.1134L 440.783 107.868L 428.506 107.868L 434.706 92.1134ZM 767.264 92.1134L 773.341 107.868L 761.064 107.868L 767.264 92.1134ZM 136.654 108.4C 160.625 108.4 172.224 136.276 155.275 153.158C 138.328 170.039 110.34 158.486 110.34 134.609C 110.34 119.285 121.269 108.4 136.654 108.4ZM 204.441 110.95C 211.757 110.988 218.27 114.853 226.113 122.813L 237.734 134.609L 226.113 146.406C 211.862 160.87 201.518 162.028 184.539 151.062C 174.81 144.779 173.486 142.748 173.486 134.132C 173.486 125.359 174.674 123.663 184.906 117.691C 192.576 113.214 198.75 110.921 204.441 110.95ZM 66.7739 111.028C 84.2639 111.028 98.1404 121.479 98.8307 135.175C 99.1437 141.359 97.1423 144.368 88.6018 150.53C 72.3081 162.286 61.0462 161.218 45.8033 146.461L 33.6818 134.731L 45.4137 122.879C 55.0821 113.111 58.8375 111.028 66.7739 111.028ZM 70.2134 119.919C 67.2245 119.922 64.3379 120.833 61.5424 122.658C 54.5002 127.253 52.7229 139.062 58.2476 144.565C 63.3502 149.648 79.7061 148.363 86.1639 142.37C 93.3601 135.693 93.3495 134.195 86.0081 127.502C 80.4541 122.439 75.1948 119.915 70.2134 119.919ZM 201.859 120.718C 193.887 121.296 184.306 125.552 182.458 130.352C 180.023 136.672 186.199 144.827 195.258 147.248C 206.319 150.206 213.692 147.437 216.64 139.222C 219.776 130.483 217.237 124.621 208.949 121.482C 206.996 120.743 204.516 120.524 201.859 120.718ZM 71.9164 129.365C 77.9575 129.365 82.7394 135.027 79.4632 138.29C 78.5982 139.151 75.1372 139.854 71.7606 139.854C 67.3754 139.854 65.6163 138.353 65.6163 134.609C 65.6163 130.828 67.3743 129.365 71.9164 129.365ZM 199.532 129.643C 202.987 129.785 206.378 131.727 206.378 134.643C 206.378 139.354 195.792 141.364 193.177 137.149C 192.153 135.499 192.51 132.967 193.967 131.516C 195.369 130.12 197.459 129.557 199.532 129.643ZM 581.156 143.035C 567.615 143.035 557.424 152.612 557.424 165.343C 557.424 178.325 567.36 188.026 580.71 188.026C 587.29 188.026 594.375 184.812 599.12 179.833L 592.353 172.593C 589.253 175.745 585.014 177.76 581.345 177.76C 574.511 177.76 569.323 172.342 569.323 165.221C 569.323 158.162 574.511 152.803 581.345 152.803C 585.204 152.803 589.443 155.072 592.353 158.601L 599.054 150.596C 594.625 145.933 587.735 143.035 581.156 143.035ZM 351.113 143.346L 351.113 187.527L 361.431 187.527L 361.431 159.544L 371.739 183.115L 379.329 183.115L 389.648 159.544L 389.703 187.527L 399.955 187.527L 399.955 143.346L 387.299 143.346L 375.534 169.123L 363.769 143.346L 351.113 143.346ZM 440.694 143.346L 421.65 187.527L 433.548 187.527L 436.643 179.711L 455.821 179.711L 458.86 187.527L 471.193 187.527L 452.593 143.346L 440.694 143.346ZM 492.899 143.346L 492.899 187.527L 503.717 187.527L 503.717 161.052L 523.842 187.527L 533.96 187.527L 533.96 143.346L 523.208 143.346L 523.208 169.944L 503.084 143.346L 492.899 143.346ZM 621.716 143.346L 621.716 187.527L 633.292 187.527L 633.292 170.576L 651.202 170.576L 651.202 187.527L 662.779 187.527L 662.779 143.346L 651.202 143.346L 651.202 161.374L 633.292 161.374L 633.292 143.346L 621.716 143.346ZM 703.506 143.346L 684.461 187.527L 696.36 187.527L 699.465 179.711L 718.633 179.711L 721.671 187.527L 734.005 187.527L 715.405 143.346L 703.506 143.346ZM 755.721 143.346L 755.721 187.527L 786.086 187.527L 786.086 177.693L 767.297 177.693L 767.297 143.346L 755.721 143.346ZM 823.676 143.346L 804.63 187.527L 816.519 187.527L 819.624 179.711L 838.791 179.711L 841.83 187.527L 854.174 187.527L 835.563 143.346L 823.676 143.346ZM 249.8 145.33C 252.637 145.097 255.003 146.089 257.157 148.235C 262.071 153.13 261.038 169.838 255.51 174.822C 250.188 179.619 245.923 180.649 248.486 176.518C 251.602 171.495 246.947 163.435 240.928 163.435C 232.764 163.435 228.739 168.268 228.739 178.07C 228.739 184.05 226.908 187.622 222.262 190.654C 214.061 196.006 209.857 203.715 212.044 209.391C 213.334 212.741 215.838 213.447 222.551 212.362C 229.762 211.196 231.378 211.778 231.378 215.555C 231.378 218.096 228.638 222.743 225.289 225.877C 221.683 229.251 215.796 231.576 210.863 231.576C 200.717 231.576 197.937 224.291 202.215 208.947C 208.673 185.779 203.916 174.755 182.948 164.267C 166.781 156.181 167.281 156.597 169.456 153.091C 170.58 151.281 175.342 153.216 182.669 158.457C 189.743 163.518 198.518 167.154 205.587 167.948C 216.257 169.146 217.955 168.403 230.51 157.16C 239.032 149.529 245.07 145.719 249.8 145.33ZM 23.3857 145.552C 27.8859 145.842 33.0863 149.063 41.7628 156.738C 51.4442 165.303 57.5096 168.68 63.2009 168.68C 72.0804 168.68 85.0743 162.857 93.7109 154.998C 96.86 152.133 100.705 150.571 102.259 151.528C 107.482 154.743 105.155 157.459 93.3214 161.961C 70.7469 170.548 64.3529 185.028 71.1929 212.085C 73.4661 221.075 73.3916 224.625 70.8701 227.651C 67.7044 231.45 57.2675 232.562 50.4338 229.824C 46.7047 228.329 39.3028 215.287 39.3028 210.211C 39.3028 207.666 40.0084 207.643 42.464 210.089C 46.9672 214.575 57.6065 213.979 59.4721 209.136C 61.731 203.272 55.8838 191.981 49.7659 190.388C 45.958 189.396 44.5678 186.793 44.5678 180.665C 44.5678 169.39 39.2895 162.717 31.2664 163.845C 26.4891 164.517 24.617 166.596 23.9979 171.95C 22.8775 181.65 19.0658 181.036 13.9355 170.32C 8.2483 158.442 11.8255 146.744 21.4934 145.597C 22.1156 145.522 22.7428 145.511 23.3857 145.552ZM 446.327 155.131L 452.404 170.886L 440.127 170.886L 446.327 155.131ZM 709.139 155.131L 715.216 170.886L 702.938 170.886L 709.139 155.131ZM 829.307 155.131L 835.374 170.886L 823.108 170.886L 829.307 155.131ZM 163.546 164.045C 166.012 164.213 168.904 165.315 173.631 167.438C 186.211 173.088 194.534 182.579 194.534 191.274C 194.534 194.663 193.11 202.751 191.362 209.257C 187.896 222.167 186.081 222.846 167.843 218.005C 155.216 214.654 147.058 205.622 145.425 193.182C 143.727 180.245 147.434 170.83 156.044 166.24C 159.042 164.642 161.08 163.878 163.546 164.045ZM 105.376 164.577C 109.221 164.219 113.078 165.014 117.108 166.927C 125.79 171.052 126.135 171.762 126.135 185.842C 126.135 202.966 123.367 209.202 113.557 214.202C 109.621 216.209 101.54 218.654 95.6034 219.635L 84.806 221.42L 81.2664 208.825C 76.5155 191.924 77.4946 184.712 85.6742 176.207C 92.6179 168.988 98.9688 165.175 105.376 164.577ZM 135.63 171.296C 138.408 171.296 139.198 175.686 138.98 189.933C 138.611 214.059 142.974 220.323 165.594 228.15C 188.086 235.932 191.005 240.579 180.186 251.354C 173.484 258.032 157.014 260.399 153.762 255.158C 152.868 253.717 153.939 252.541 156.144 252.541C 158.349 252.541 161.457 250.105 163.056 247.13C 167.589 238.694 161.644 233.339 149.955 235.334C 144.81 236.212 138.825 236.877 136.654 236.798C 134.483 236.723 127.382 236.406 120.871 236.088C 109.876 235.55 109.027 235.975 109.027 241.986C 109.027 246.13 111.218 249.536 115.104 251.466C 120.231 254.011 120.506 254.741 116.863 256.133C 103.142 261.378 85.5349 252.544 87.1769 241.243C 88.0372 235.326 93.5157 231.964 113.69 224.968C 130.494 219.141 135.15 210.351 133.337 187.849C 132.291 174.878 132.78 171.296 135.63 171.296ZM 162.355 172.627C 161.004 172.804 159.852 173.369 158.927 174.323C 152.395 181.057 153.119 195.557 160.341 202.75C 166.673 209.058 170.444 209.306 178.172 203.914C 185.302 198.94 185.953 186.906 179.407 181.219C 172.279 175.025 166.408 172.094 162.355 172.627ZM 107.223 174.156C 90.7633 174.698 81.6045 196.52 95.6473 205.987C 106.087 213.025 118.85 201.304 117.698 185.742C 117.043 176.908 115.911 175.092 110.607 174.345C 109.45 174.182 108.321 174.12 107.223 174.156ZM 167.097 181.784C 169.061 181.784 171.874 184.02 173.341 186.751C 177.219 193.97 170.428 199.326 164.671 193.592C 160.087 189.027 161.574 181.784 167.097 181.784ZM 105.799 182.461C 106.385 182.473 106.946 182.622 107.457 182.937C 111.771 185.593 110.931 194.103 106.177 195.92C 100.317 198.16 99.849 198.005 98.063 193.37C 96.3948 189.04 101.702 182.372 105.799 182.461Z"/>
</defs>
</svg>
