<svg  viewBox="0 0 465 459" xmlns="http://www.w3.org/2000/svg" xmlns:xlink="http://www.w3.org/1999/xlink"><use xlink:href="#a" transform="matrix(.26458 0 0 .26458 .995 .077)" fill="#040404"/><defs><path id="a" d="M1050.84.233c-49.08-2.035-97.172 9.2-133.73 35.893l-46.32 33.816-46.813-34.675c-93.834-69.535-273.65-29.748-332.295 73.577-21.275 37.482-40.472 49.565-79.053 49.648-124.54.262-258.046 147.745-237.658 262.572 7.862 44.28 2.154 54.087-44.46 76.228C19.183 550.172-33.632 706.724 22.87 816.246c25.615 49.647 25.615 57.53 0 107.178-56.503 109.526-3.685 266.076 107.643 318.956 46.61 22.14 52.32 31.94 44.46 76.23-20.525 115.58 113.327 262.5 239.157 262.5 39.576 0 57.23 10.37 71.762 42.34 10.595 23.31 44.09 57.58 74.478 76.16 73.483 44.9 213.898 46.11 267.893 2.29 38.003-30.85 40.194-30.86 90.558-.07 33.55 20.5 83.72 31.56 143.24 31.59 86.54.06 95.57-4.09 164.4-76.08 51.89-54.29 86.35-76.26 119.65-76.31 110.86-.14 223.66-123.56 224.43-245.52.38-59.46 7.02-70.83 54.54-93.13 29.77-13.97 69.06-51.45 87.34-83.32 42-73.23 44.78-207.36 5.15-251.252-26.34-29.17-25.96-35.696 6.22-100.874 24.75-50.116 31.28-86.13 23.37-128.384-16.06-85.8-70.1-165.213-127.09-186.774-43.82-16.58-49.85-27.105-49.88-87.118-.12-125.795-113.02-245.883-231.3-246.022-41.43-.05-60.61-11.326-82.56-48.574C1217.26 43.76 1132.63 3.626 1050.84.232zm-358.813 73.65c76.955 0 95.482 16.626 46.033 41.337-23.954 11.972-37.953 34.39-37.953 60.825 0 38.846 5.45 41.514 76.052 38.042 41.814-2.056 87.412-4.113 101.35-4.585 13.935-.482 52.373 3.782 85.413 9.457 75.057 12.892 113.237-21.71 84.127-76.23-10.27-19.222-30.23-34.96-44.38-34.96-14.16 0-21.045-7.595-15.302-16.908 5.743-9.314 39.822-16.98 75.762-16.98 50.48 0 73.31 10.168 100.36 44.634 19.25 24.54 35.02 50.71 35.02 58.102 0 30.106-55.84 65.726-142.53 90.987-131.5 38.318-161.53 83.11-161.53 240.433 0 94.97-5.63 124.73-23.446 124.73-18.364 0-21.515-23.032-14.795-106.962 12.134-151.546-16.936-201.76-143.166-247.455-130.408-47.206-147.162-58.05-153.245-98.794-7.762-52.004 59.377-105.674 132.227-105.674zM395.332 243.245c63.29 0 85.05 40.83 62.327 116.85-49.89 166.9-12.015 259.553 132.87 325.19 46.344 20.99 84.274 43.976 84.274 51.08 0 36.147-40.47 28.07-100.14-19.99-44.377-35.747-91.527-56.444-141.092-62.04-69.51-7.856-80.233-3.314-162.18 69.635-104.398 92.94-157.46 101.06-187.41 28.588-20.294-49.108-12.137-108.542 20.514-149.45 26.797-33.57 43.83-24.847 49.604 25.292 11.317 98.273 132.088 48.162 132.088-54.807 0-40.93 10.04-58.526 41.742-73.005 55.973-25.563 75.415-102.298 33.665-132.898-26.08-19.112-37.06-18.582-70.046 3.08-45.47 29.863-50.196 10.775-14.44-58.532 26.518-51.4 56.623-68.992 118.222-68.992zm960.208 0c57.53 0 113.79 43.885 135.59 105.817 12.14 34.466 10.64 34.964-45.95 13.397-32.36-12.33-49.09-9.978-68.69 9.672-37.69 37.774-32.68 55.475 33.23 117.78 32.52 30.746 59.11 72.125 59.11 91.99 0 54.02 30.98 101.66 66.12 101.66 40.02 0 75.68-42.99 63.04-76.012-13.46-35.157 11.77-32.178 45.67 5.375 32.5 35.99 37.16 139.282 7.65 168.86-36.87 36.96-88.49 19.876-171.4-56.596-106.14-97.906-171.98-101.707-294.55-17.197-77.17 53.21-105.07 59.785-105.07 24.792 0-7.08 41.72-31.986 92.7-55.384 129.69-59.507 158.45-120.786 128.23-273.172-27.08-136.564-18.89-160.982 54.32-160.982zm-147.81 65.052l20.72 77.805c39.31 147.28 18.1 204.466-97.92 263.787-77.31 39.54-79.02 39.66-137.944 7.595-34.926-19.003-48.027-42-56.61-99.368-19.617-131.113 52.138-218.898 195.344-239.073l76.41-10.746zm-628.42 5.23c19.12-.183 46.57 5.988 88.418 16.55 105.772 26.695 142.24 78.64 142.24 202.892 0 92.377-3.327 100.595-49.89 124.73-56.916 29.5-61.59 29.788-119.082 6.877-121.86-48.56-159.284-141.924-115.578-288.147 13.362-44.7 22.025-62.597 53.892-62.902zm77.91 82.175c-38.004 0-100.71 56.556-100.71 90.843 0 33.287 66.117 112.666 107.932 129.602 19.623 7.947 37.004 14.965 38.664 15.548 1.66.59 14.992-10.943 29.595-25.58 60.67-60.81 6.997-210.413-75.48-210.413zm441.08 0c-73.93 0-130.792 96.684-108.074 183.764 21.884 83.858 191.414 9.17 191.414-84.324 0-45.223-45.45-99.44-83.34-99.44zm-443.012 67.702c26.76 0 57.446 49.38 47.248 76.014-12.435 32.485-34.734 32.633-61.4.428-21.75-26.27-12.45-76.443 14.152-76.443zm430.362 4.585c29.32 9.785 35.35 65.25 8.93 82.03-29.9 18.997-43.87 18.617-56.32-1.574-14.6-23.674 23.53-88.418 47.39-80.456zM877.51 700.47c153.93 0 228.41 180.138 119.577 289.224-108.827 109.086-288.55 34.436-288.55-119.86 0-99.026 70.18-169.363 168.972-169.363zm435.29 16.478c46.98.25 88.8 25.222 139.16 76.66l74.63 76.227-74.63 76.228c-91.51 93.467-157.93 100.957-266.96 30.088-62.47-40.6-70.98-53.723-70.98-109.396 0-56.693 7.64-67.653 73.34-106.243 49.25-28.932 88.9-43.75 125.44-43.562zm-884.017.504c112.31 0 201.416 67.534 205.85 156.036 2.01 39.967-10.843 59.406-65.685 99.225-104.628 75.967-176.946 69.067-274.826-26.293l-77.838-75.798 75.336-76.585c62.084-63.12 86.2-76.585 137.163-76.585zm22.086 57.457c-19.194.016-37.73 5.907-55.68 17.694C349.967 822.3 338.554 898.61 374.03 934.17c32.766 32.845 137.793 24.54 179.262-14.185 46.21-43.15 46.14-52.823-1-96.075-35.666-32.716-69.437-49.03-101.425-49zm845.35 5.16c-51.19 3.738-112.71 31.237-124.58 62.254-15.64 40.84 24.02 93.538 82.19 109.183 71.03 19.11 118.38 1.217 137.3-51.867 20.14-56.466 3.84-94.348-49.38-114.632-12.54-4.775-28.47-6.19-45.53-4.94zm-834.415 55.876c38.792 0 69.498 36.59 48.46 57.673-5.554 5.567-27.78 10.104-49.46 10.104-28.16 0-39.456-9.697-39.456-33.89 0-24.434 11.288-33.888 40.455-33.888zm819.475 1.796c22.18.917 43.96 13.47 43.96 32.308 0 30.445-67.98 43.433-84.77 16.194-6.58-10.66-4.28-27.018 5.07-36.398 9-9.023 22.43-12.66 35.74-12.104zm322.79 101.37c18.22-1.505 33.41 4.907 47.24 18.772 31.55 31.63 24.92 139.596-10.58 171.796-34.17 31-61.56 37.66-45.1 10.96 20.01-32.45-9.88-84.53-48.53-84.53-52.42 0-78.27 31.22-78.27 94.57 0 38.64-11.76 61.72-41.59 81.31-52.67 34.59-79.66 84.4-65.62 121.08 8.28 21.65 24.36 26.21 67.47 19.2 46.31-7.53 56.68-3.78 56.68 20.63 0 16.42-17.59 46.45-39.1 66.7-23.15 21.8-60.96 36.83-92.63 36.83-65.15 0-83-47.08-55.54-146.23 41.47-149.71 10.92-220.95-123.72-288.72-103.81-52.25-100.6-49.56-86.63-72.216 7.21-11.697 37.79.804 84.84 34.676 45.43 32.7 101.77 56.19 147.17 61.33 68.51 7.74 79.42 2.94 160.04-69.71 54.72-49.315 93.49-73.932 123.87-76.447zm-1453.9 1.435c28.897 1.874 62.29 22.69 118.006 72.283 62.17 55.35 101.117 77.17 137.663 77.17 57.017 0 140.457-37.63 195.916-88.41 20.222-18.517 44.91-28.61 54.893-22.425 33.536 20.776 18.594 38.325-57.395 67.415-144.96 55.49-186.02 149.06-142.096 323.9 14.596 58.09 14.117 81.03-2.074 100.58-20.328 24.55-87.348 31.74-131.23 14.05-23.946-9.66-71.476-93.94-71.476-126.74 0-16.45 4.53-16.6 20.3-.79 28.915 28.99 97.235 25.13 109.215-6.16 14.505-37.89-23.042-110.85-62.327-121.15-24.453-6.41-33.38-23.23-33.38-62.83 0-72.86-33.894-115.97-85.414-108.68-30.677 4.34-42.698 17.77-46.674 52.37-7.194 62.68-31.67 58.71-64.614-10.53-36.52-76.76-13.55-152.35 48.532-159.765 3.995-.48 8.023-.555 12.15-.288zm900.03 119.503c15.83 1.08 34.4 8.2 64.75 21.92 80.79 36.51 134.23 97.84 134.23 154.03 0 21.9-9.14 74.16-20.36 116.21-22.26 83.42-33.92 87.8-151.03 56.53-81.088-21.66-133.473-80.03-143.96-160.41-10.898-83.6 12.903-144.44 68.19-174.1 19.25-10.32 32.34-15.26 48.18-14.18zm-373.538 3.44c24.688-2.32 49.46 2.82 75.334 15.18 55.752 26.65 57.97 31.25 57.97 122.23 0 110.65-17.775 150.95-80.772 183.26-25.275 12.97-77.164 28.77-115.286 35.11l-69.334 11.53-22.73-81.39c-30.507-109.21-24.22-155.82 28.305-210.77 44.587-46.65 85.37-71.29 126.512-75.15zm194.274 43.41c17.838 0 22.91 28.37 21.514 120.43-2.37 155.91 25.643 196.38 170.9 246.96 144.43 50.29 163.17 80.31 93.7 149.94-43.04 43.15-148.8 58.45-169.682 24.58-5.743-9.31 1.135-16.91 15.302-16.91 14.15 0 34.11-15.74 44.38-34.96 29.11-54.52-9.07-89.12-84.127-76.23-33.04 5.68-71.472 9.97-85.414 9.46-13.938-.48-59.536-2.53-101.35-4.59-70.603-3.47-76.053-.73-76.053 38.12 0 26.78 14.072 48.78 39.026 61.25 32.92 16.45 34.683 21.17 11.294 30.17-88.108 33.88-201.172-23.2-190.628-96.22 5.523-38.24 40.703-59.97 170.253-105.17 107.9-37.65 137.8-94.45 126.156-239.86-6.715-83.82-3.576-106.97 14.726-106.97zm171.614 8.6c-8.68 1.15-16.08 4.8-22.02 10.96-41.937 43.52-37.29 137.22 9.08 183.7 40.67 40.76 64.88 42.36 114.5 7.52 45.79-32.15 49.97-109.91 7.94-146.66-45.78-40.02-83.47-58.96-109.5-55.52zm-354.024 9.89c-105.698 3.5-164.51 144.51-74.335 205.68 67.04 45.48 148.993-30.26 141.595-130.82-4.2-57.08-11.474-68.82-45.53-73.65-7.43-1.05-14.682-1.45-21.73-1.21zM1073 1174.67c12.61 0 30.67 14.45 40.1 32.1 24.9 46.65-18.71 81.26-55.68 44.21-29.43-29.5-19.89-76.31 15.58-76.31zm-393.622 4.38c3.76.08 7.363 1.04 10.65 3.08 27.698 17.16 22.305 72.15-8.222 83.89-37.63 14.48-40.635 13.48-52.103-16.48-10.713-27.98 23.366-71.06 49.675-70.49z"/></defs></svg>
